<?xml version="1.0" encoding="UTF-8" standalone="no"?><svg xmlns="http://www.w3.org/2000/svg" xmlns:xlink="http://www.w3.org/1999/xlink" contentScriptType="application/ecmascript" contentStyleType="text/css" height="1419px" preserveAspectRatio="none" style="width:1237px;height:1419px;background:#FFFFFF;" version="1.1" viewBox="0 0 1237 1419" width="1237px" zoomAndPan="magnify"><defs><filter height="300%" id="f1c7l2b3nqastl" width="300%" x="-1" y="-1"><feGaussianBlur result="blurOut" stdDeviation="2.0"/><feColorMatrix in="blurOut" result="blurOut2" type="matrix" values="0 0 0 0 0 0 0 0 0 0 0 0 0 0 0 0 0 0 .4 0"/><feOffset dx="4.0" dy="4.0" in="blurOut2" result="blurOut3"/><feBlend in="SourceGraphic" in2="blurOut3" mode="normal"/></filter></defs><g><rect fill="#FFFFFF" filter="url(#f1c7l2b3nqastl)" height="395.2983" style="stroke:#000000;stroke-width:2.0;" width="794" x="10" y="60.1201"/><rect fill="#FFFFFF" filter="url(#f1c7l2b3nqastl)" height="316.7896" style="stroke:#000000;stroke-width:2.0;" width="774" x="20" y="131.6289"/><rect fill="#FFFFFF" filter="url(#f1c7l2b3nqastl)" height="141.0176" style="stroke:#000000;stroke-width:2.0;" width="471" x="313" y="190.1377"/><rect fill="#FFFFFF" filter="url(#f1c7l2b3nqastl)" height="96.2632" style="stroke:#000000;stroke-width:2.0;" width="471" x="313" y="345.1553"/><rect fill="#FFFFFF" filter="url(#f1c7l2b3nqastl)" height="842.1055" style="stroke:#000000;stroke-width:2.0;" width="1213" x="10" y="514.1729"/><rect fill="#FFFFFF" filter="url(#f1c7l2b3nqastl)" height="316.7896" style="stroke:#000000;stroke-width:2.0;" width="774" x="20" y="572.6816"/><rect fill="#FFFFFF" filter="url(#f1c7l2b3nqastl)" height="141.0176" style="stroke:#000000;stroke-width:2.0;" width="471" x="313" y="631.1904"/><rect fill="#FFFFFF" filter="url(#f1c7l2b3nqastl)" height="96.2632" style="stroke:#000000;stroke-width:2.0;" width="471" x="313" y="786.208"/><rect fill="#FFFFFF" filter="url(#f1c7l2b3nqastl)" height="335.5439" style="stroke:#000000;stroke-width:2.0;" width="1185" x="20" y="903.4712"/><rect fill="#FFFFFF" filter="url(#f1c7l2b3nqastl)" height="128.0176" style="stroke:#000000;stroke-width:2.0;" width="882" x="313" y="961.98"/><rect fill="#FFFFFF" filter="url(#f1c7l2b3nqastl)" height="128.0176" style="stroke:#000000;stroke-width:2.0;" width="872" x="313" y="1103.9976"/><rect fill="#FFFFFF" filter="url(#f1c7l2b3nqastl)" height="96.2632" style="stroke:#000000;stroke-width:2.0;" width="1193" x="20" y="1253.0151"/><line style="stroke:#A80036;stroke-width:1.0;stroke-dasharray:5.0,5.0;" x1="114" x2="114" y1="43.1201" y2="1373.2783"/><line style="stroke:#A80036;stroke-width:1.0;stroke-dasharray:5.0,5.0;" x1="420" x2="420" y1="43.1201" y2="1373.2783"/><line style="stroke:#A80036;stroke-width:1.0;stroke-dasharray:5.0,5.0;" x1="718" x2="718" y1="43.1201" y2="1373.2783"/><line style="stroke:#A80036;stroke-width:1.0;stroke-dasharray:5.0,5.0;" x1="881" x2="881" y1="43.1201" y2="1373.2783"/><rect fill="#FEFECE" filter="url(#f1c7l2b3nqastl)" height="33.1201" style="stroke:#A80036;stroke-width:1.5;" width="165" x="30" y="5"/><text fill="#000000" font-family="sans-serif" font-size="14" lengthAdjust="spacing" textLength="151" x="37" y="28.0439">EthTrcv_30_88Q1010.c</text><rect fill="#FEFECE" filter="url(#f1c7l2b3nqastl)" height="33.1201" style="stroke:#A80036;stroke-width:1.5;" width="165" x="30" y="1372.2783"/><text fill="#000000" font-family="sans-serif" font-size="14" lengthAdjust="spacing" textLength="151" x="37" y="1395.3223">EthTrcv_30_88Q1010.c</text><rect fill="#FEFECE" filter="url(#f1c7l2b3nqastl)" height="33.1201" style="stroke:#A80036;stroke-width:1.5;" width="191" x="323" y="5"/><text fill="#000000" font-family="sans-serif" font-size="14" lengthAdjust="spacing" textLength="177" x="330" y="28.0439">EthTrcv_30_88Q1010_Hw.c</text><rect fill="#FEFECE" filter="url(#f1c7l2b3nqastl)" height="33.1201" style="stroke:#A80036;stroke-width:1.5;" width="191" x="323" y="1372.2783"/><text fill="#000000" font-family="sans-serif" font-size="14" lengthAdjust="spacing" textLength="177" x="330" y="1395.3223">EthTrcv_30_88Q1010_Hw.c</text><rect fill="#FEFECE" filter="url(#f1c7l2b3nqastl)" height="33.1201" style="stroke:#A80036;stroke-width:1.5;" width="107" x="663" y="5"/><text fill="#000000" font-family="sans-serif" font-size="14" lengthAdjust="spacing" textLength="93" x="670" y="28.0439">Eth_30_Enet.c</text><rect fill="#FEFECE" filter="url(#f1c7l2b3nqastl)" height="33.1201" style="stroke:#A80036;stroke-width:1.5;" width="107" x="663" y="1372.2783"/><text fill="#000000" font-family="sans-serif" font-size="14" lengthAdjust="spacing" textLength="93" x="670" y="1395.3223">Eth_30_Enet.c</text><rect fill="#FEFECE" filter="url(#f1c7l2b3nqastl)" height="33.1201" style="stroke:#A80036;stroke-width:1.5;" width="190" x="784" y="5"/><text fill="#000000" font-family="sans-serif" font-size="14" lengthAdjust="spacing" textLength="176" x="791" y="28.0439">EthTrcv_30_88Q1010_LL.h</text><rect fill="#FEFECE" filter="url(#f1c7l2b3nqastl)" height="33.1201" style="stroke:#A80036;stroke-width:1.5;" width="190" x="784" y="1372.2783"/><text fill="#000000" font-family="sans-serif" font-size="14" lengthAdjust="spacing" textLength="176" x="791" y="1395.3223">EthTrcv_30_88Q1010_LL.h</text><path d="M10,60.1201 L356,60.1201 L356,69.1201 L346,79.1201 L10,79.1201 L10,60.1201 " fill="#EEEEEE" style="stroke:#000000;stroke-width:1.0;"/><rect fill="none" height="395.2983" style="stroke:#000000;stroke-width:2.0;" width="794" x="10" y="60.1201"/><text fill="#000000" font-family="sans-serif" font-size="13" font-weight="bold" lengthAdjust="spacing" textLength="301" x="25" y="76.0181">EthTrcv_30_88Q1010_LL_IsTransceiverAccessOk</text><line style="stroke:#A80036;stroke-width:1.0;" x1="114.5" x2="156.5" y1="103.6289" y2="103.6289"/><line style="stroke:#A80036;stroke-width:1.0;" x1="156.5" x2="156.5" y1="103.6289" y2="116.6289"/><line style="stroke:#A80036;stroke-width:1.0;" x1="115.5" x2="156.5" y1="116.6289" y2="116.6289"/><polygon fill="#A80036" points="125.5,112.6289,115.5,116.6289,125.5,120.6289,121.5,116.6289" style="stroke:#A80036;stroke-width:1.0;"/><text fill="#000000" font-family="sans-serif" font-size="13" lengthAdjust="spacing" textLength="287" x="121.5" y="98.7725">EthTrcv_30_88Q1010_LL_IsTransceiverAccessOk</text><path d="M20,131.6289 L367,131.6289 L367,140.6289 L357,150.6289 L20,150.6289 L20,131.6289 " fill="#EEEEEE" style="stroke:#000000;stroke-width:1.0;"/><rect fill="none" height="316.7896" style="stroke:#000000;stroke-width:2.0;" width="774" x="20" y="131.6289"/><text fill="#000000" font-family="sans-serif" font-size="13" font-weight="bold" lengthAdjust="spacing" textLength="302" x="35" y="147.5269">EthTrcv_30_88Q1010_Internal_ReadCl45TrcvReg</text><polygon fill="#A80036" points="408.5,171.1377,418.5,175.1377,408.5,179.1377,412.5,175.1377" style="stroke:#A80036;stroke-width:1.0;"/><line style="stroke:#A80036;stroke-width:1.0;" x1="114.5" x2="414.5" y1="175.1377" y2="175.1377"/><text fill="#000000" font-family="sans-serif" font-size="13" lengthAdjust="spacing" textLength="281" x="121.5" y="170.2813">EthTrcv_30_88Q1010_Internal_ReadCl45TrcvReg</text><path d="M313,190.1377 L595,190.1377 L595,199.1377 L585,209.1377 L313,209.1377 L313,190.1377 " fill="#EEEEEE" style="stroke:#000000;stroke-width:1.0;"/><rect fill="none" height="141.0176" style="stroke:#000000;stroke-width:2.0;" width="471" x="313" y="190.1377"/><text fill="#000000" font-family="sans-serif" font-size="13" font-weight="bold" lengthAdjust="spacing" textLength="237" x="328" y="206.0356">EthTrcv_30_88Q1010_SetCl45AddrReg</text><line style="stroke:#A80036;stroke-width:1.0;" x1="420.5" x2="462.5" y1="233.6465" y2="233.6465"/><line style="stroke:#A80036;stroke-width:1.0;" x1="462.5" x2="462.5" y1="233.6465" y2="246.6465"/><line style="stroke:#A80036;stroke-width:1.0;" x1="421.5" x2="462.5" y1="246.6465" y2="246.6465"/><polygon fill="#A80036" points="431.5,242.6465,421.5,246.6465,431.5,250.6465,427.5,246.6465" style="stroke:#A80036;stroke-width:1.0;"/><text fill="#000000" font-family="sans-serif" font-size="13" lengthAdjust="spacing" textLength="226" x="427.5" y="228.79">EthTrcv_30_88Q1010_SetCl45AddrReg</text><line style="stroke:#A80036;stroke-width:1.0;" x1="420.5" x2="462.5" y1="278.4009" y2="278.4009"/><line style="stroke:#A80036;stroke-width:1.0;" x1="462.5" x2="462.5" y1="278.4009" y2="291.4009"/><line style="stroke:#A80036;stroke-width:1.0;" x1="421.5" x2="462.5" y1="291.4009" y2="291.4009"/><polygon fill="#A80036" points="431.5,287.4009,421.5,291.4009,431.5,295.4009,427.5,291.4009" style="stroke:#A80036;stroke-width:1.0;"/><text fill="#000000" font-family="sans-serif" font-size="13" lengthAdjust="spacing" textLength="284" x="427.5" y="273.5444">EthTrcv_30_88Q1010_Internal_WriteTrcvReg(3次)</text><polygon fill="#A80036" points="706.5,319.1553,716.5,323.1553,706.5,327.1553,710.5,323.1553" style="stroke:#A80036;stroke-width:1.0;"/><line style="stroke:#A80036;stroke-width:1.0;" x1="420.5" x2="712.5" y1="323.1553" y2="323.1553"/><text fill="#000000" font-family="sans-serif" font-size="13" lengthAdjust="spacing" textLength="179" x="427.5" y="318.2988">Eth_30_Enet_Internal_WriteMii</text><path d="M313,345.1553 L633,345.1553 L633,354.1553 L623,364.1553 L313,364.1553 L313,345.1553 " fill="#EEEEEE" style="stroke:#000000;stroke-width:1.0;"/><rect fill="none" height="96.2632" style="stroke:#000000;stroke-width:2.0;" width="471" x="313" y="345.1553"/><text fill="#000000" font-family="sans-serif" font-size="13" font-weight="bold" lengthAdjust="spacing" textLength="275" x="328" y="361.0532">EthTrcv_30_88Q1010_Internal_ReadTrcvReg</text><line style="stroke:#A80036;stroke-width:1.0;" x1="420.5" x2="462.5" y1="388.6641" y2="388.6641"/><line style="stroke:#A80036;stroke-width:1.0;" x1="462.5" x2="462.5" y1="388.6641" y2="401.6641"/><line style="stroke:#A80036;stroke-width:1.0;" x1="421.5" x2="462.5" y1="401.6641" y2="401.6641"/><polygon fill="#A80036" points="431.5,397.6641,421.5,401.6641,431.5,405.6641,427.5,401.6641" style="stroke:#A80036;stroke-width:1.0;"/><text fill="#000000" font-family="sans-serif" font-size="13" lengthAdjust="spacing" textLength="283" x="427.5" y="383.8076">EthTrcv_30_88Q1010_Internal_ReadTrcvReg(1次)</text><polygon fill="#A80036" points="706.5,429.4185,716.5,433.4185,706.5,437.4185,710.5,433.4185" style="stroke:#A80036;stroke-width:1.0;"/><line style="stroke:#A80036;stroke-width:1.0;" x1="420.5" x2="712.5" y1="433.4185" y2="433.4185"/><text fill="#000000" font-family="sans-serif" font-size="13" lengthAdjust="spacing" textLength="178" x="427.5" y="428.562">Eth_30_Enet_Internal_ReadMii</text><line style="stroke:#A80036;stroke-width:1.0;" x1="114.5" x2="156.5" y1="486.1729" y2="486.1729"/><line style="stroke:#A80036;stroke-width:1.0;" x1="156.5" x2="156.5" y1="486.1729" y2="499.1729"/><line style="stroke:#A80036;stroke-width:1.0;" x1="115.5" x2="156.5" y1="499.1729" y2="499.1729"/><polygon fill="#A80036" points="125.5,495.1729,115.5,499.1729,125.5,503.1729,121.5,499.1729" style="stroke:#A80036;stroke-width:1.0;"/><text fill="#000000" font-family="sans-serif" font-size="13" lengthAdjust="spacing" textLength="259" x="121.5" y="481.3164">EthTrcv_30_88Q1010_PerformSoftwareReset</text><path d="M10,514.1729 L450,514.1729 L450,523.1729 L440,533.1729 L10,533.1729 L10,514.1729 " fill="#EEEEEE" style="stroke:#000000;stroke-width:1.0;"/><rect fill="none" height="842.1055" style="stroke:#000000;stroke-width:2.0;" width="1213" x="10" y="514.1729"/><text fill="#000000" font-family="sans-serif" font-size="13" font-weight="bold" lengthAdjust="spacing" textLength="395" x="25" y="530.0708">ETHTRCV_30_88Q1010_BEGIN_CRITICAL_SECTION_SEQUENCE</text><polygon fill="#A80036" points="869,553.6816,879,557.6816,869,561.6816,873,557.6816" style="stroke:#A80036;stroke-width:1.0;"/><line style="stroke:#A80036;stroke-width:1.0;" x1="114.5" x2="875" y1="557.6816" y2="557.6816"/><text fill="#000000" font-family="sans-serif" font-size="13" lengthAdjust="spacing" textLength="327" x="121.5" y="552.8252">EthTrcv_30_88Q1010_LL_SetBasicConfigurationRegister</text><path d="M20,572.6816 L368,572.6816 L368,581.6816 L358,591.6816 L20,591.6816 L20,572.6816 " fill="#EEEEEE" style="stroke:#000000;stroke-width:1.0;"/><rect fill="none" height="316.7896" style="stroke:#000000;stroke-width:2.0;" width="774" x="20" y="572.6816"/><text fill="#000000" font-family="sans-serif" font-size="13" font-weight="bold" lengthAdjust="spacing" textLength="303" x="35" y="588.5796">EthTrcv_30_88Q1010_Internal_WriteCl45TrcvReg</text><polygon fill="#A80036" points="408.5,612.1904,418.5,616.1904,408.5,620.1904,412.5,616.1904" style="stroke:#A80036;stroke-width:1.0;"/><line style="stroke:#A80036;stroke-width:1.0;" x1="114.5" x2="414.5" y1="616.1904" y2="616.1904"/><text fill="#000000" font-family="sans-serif" font-size="13" lengthAdjust="spacing" textLength="282" x="121.5" y="611.334">EthTrcv_30_88Q1010_Internal_WriteCl45TrcvReg</text><path d="M313,631.1904 L595,631.1904 L595,640.1904 L585,650.1904 L313,650.1904 L313,631.1904 " fill="#EEEEEE" style="stroke:#000000;stroke-width:1.0;"/><rect fill="none" height="141.0176" style="stroke:#000000;stroke-width:2.0;" width="471" x="313" y="631.1904"/><text fill="#000000" font-family="sans-serif" font-size="13" font-weight="bold" lengthAdjust="spacing" textLength="237" x="328" y="647.0884">EthTrcv_30_88Q1010_SetCl45AddrReg</text><line style="stroke:#A80036;stroke-width:1.0;" x1="420.5" x2="462.5" y1="674.6992" y2="674.6992"/><line style="stroke:#A80036;stroke-width:1.0;" x1="462.5" x2="462.5" y1="674.6992" y2="687.6992"/><line style="stroke:#A80036;stroke-width:1.0;" x1="421.5" x2="462.5" y1="687.6992" y2="687.6992"/><polygon fill="#A80036" points="431.5,683.6992,421.5,687.6992,431.5,691.6992,427.5,687.6992" style="stroke:#A80036;stroke-width:1.0;"/><text fill="#000000" font-family="sans-serif" font-size="13" lengthAdjust="spacing" textLength="226" x="427.5" y="669.8428">EthTrcv_30_88Q1010_SetCl45AddrReg</text><line style="stroke:#A80036;stroke-width:1.0;" x1="420.5" x2="462.5" y1="719.4536" y2="719.4536"/><line style="stroke:#A80036;stroke-width:1.0;" x1="462.5" x2="462.5" y1="719.4536" y2="732.4536"/><line style="stroke:#A80036;stroke-width:1.0;" x1="421.5" x2="462.5" y1="732.4536" y2="732.4536"/><polygon fill="#A80036" points="431.5,728.4536,421.5,732.4536,431.5,736.4536,427.5,732.4536" style="stroke:#A80036;stroke-width:1.0;"/><text fill="#000000" font-family="sans-serif" font-size="13" lengthAdjust="spacing" textLength="284" x="427.5" y="714.5972">EthTrcv_30_88Q1010_Internal_WriteTrcvReg(3次)</text><polygon fill="#A80036" points="706.5,760.208,716.5,764.208,706.5,768.208,710.5,764.208" style="stroke:#A80036;stroke-width:1.0;"/><line style="stroke:#A80036;stroke-width:1.0;" x1="420.5" x2="712.5" y1="764.208" y2="764.208"/><text fill="#000000" font-family="sans-serif" font-size="13" lengthAdjust="spacing" textLength="179" x="427.5" y="759.3516">Eth_30_Enet_Internal_WriteMii</text><path d="M313,786.208 L634,786.208 L634,795.208 L624,805.208 L313,805.208 L313,786.208 " fill="#EEEEEE" style="stroke:#000000;stroke-width:1.0;"/><rect fill="none" height="96.2632" style="stroke:#000000;stroke-width:2.0;" width="471" x="313" y="786.208"/><text fill="#000000" font-family="sans-serif" font-size="13" font-weight="bold" lengthAdjust="spacing" textLength="276" x="328" y="802.106">EthTrcv_30_88Q1010_Internal_WriteTrcvReg</text><line style="stroke:#A80036;stroke-width:1.0;" x1="420.5" x2="462.5" y1="829.7168" y2="829.7168"/><line style="stroke:#A80036;stroke-width:1.0;" x1="462.5" x2="462.5" y1="829.7168" y2="842.7168"/><line style="stroke:#A80036;stroke-width:1.0;" x1="421.5" x2="462.5" y1="842.7168" y2="842.7168"/><polygon fill="#A80036" points="431.5,838.7168,421.5,842.7168,431.5,846.7168,427.5,842.7168" style="stroke:#A80036;stroke-width:1.0;"/><text fill="#000000" font-family="sans-serif" font-size="13" lengthAdjust="spacing" textLength="284" x="427.5" y="824.8604">EthTrcv_30_88Q1010_Internal_WriteTrcvReg(1次)</text><polygon fill="#A80036" points="706.5,870.4712,716.5,874.4712,706.5,878.4712,710.5,874.4712" style="stroke:#A80036;stroke-width:1.0;"/><line style="stroke:#A80036;stroke-width:1.0;" x1="420.5" x2="712.5" y1="874.4712" y2="874.4712"/><text fill="#000000" font-family="sans-serif" font-size="13" lengthAdjust="spacing" textLength="179" x="427.5" y="869.6147">Eth_30_Enet_Internal_WriteMii</text><path d="M20,903.4712 L399,903.4712 L399,912.4712 L389,922.4712 L20,922.4712 L20,903.4712 " fill="#EEEEEE" style="stroke:#000000;stroke-width:1.0;"/><rect fill="none" height="335.5439" style="stroke:#000000;stroke-width:2.0;" width="1185" x="20" y="903.4712"/><text fill="#000000" font-family="sans-serif" font-size="13" font-weight="bold" lengthAdjust="spacing" textLength="334" x="35" y="919.3691">EthTrcv_30_88Q1010_LL_ApplyAdditionalConfigSteps</text><polygon fill="#A80036" points="869,942.98,879,946.98,869,950.98,873,946.98" style="stroke:#A80036;stroke-width:1.0;"/><line style="stroke:#A80036;stroke-width:1.0;" x1="114.5" x2="875" y1="946.98" y2="946.98"/><text fill="#000000" font-family="sans-serif" font-size="13" lengthAdjust="spacing" textLength="311" x="121.5" y="942.1235">EthTrcv_30_88Q1010_LL_ApplyAdditionalConfigSteps</text><path d="M313,961.98 L669,961.98 L669,970.98 L659,980.98 L313,980.98 L313,961.98 " fill="#EEEEEE" style="stroke:#000000;stroke-width:1.0;"/><rect fill="none" height="128.0176" style="stroke:#000000;stroke-width:2.0;" width="882" x="313" y="961.98"/><text fill="#000000" font-family="sans-serif" font-size="13" font-weight="bold" lengthAdjust="spacing" textLength="311" x="328" y="977.8779">EthTrcv_30_88Q1010_ReadClearBitMaskWriteCl45</text><line style="stroke:#A80036;stroke-width:1.0;" x1="881" x2="923" y1="1005.4888" y2="1005.4888"/><line style="stroke:#A80036;stroke-width:1.0;" x1="923" x2="923" y1="1005.4888" y2="1018.4888"/><line style="stroke:#A80036;stroke-width:1.0;" x1="882" x2="923" y1="1018.4888" y2="1018.4888"/><polygon fill="#A80036" points="892,1014.4888,882,1018.4888,892,1022.4888,888,1018.4888" style="stroke:#A80036;stroke-width:1.0;"/><text fill="#000000" font-family="sans-serif" font-size="13" lengthAdjust="spacing" textLength="295" x="888" y="1000.6323">EthTrcv_30_88Q1010_ReadClearBitMaskWriteCl45</text><polygon fill="#A80036" points="431.5,1046.2432,421.5,1050.2432,431.5,1054.2432,427.5,1050.2432" style="stroke:#A80036;stroke-width:1.0;"/><line style="stroke:#A80036;stroke-width:1.0;" x1="425.5" x2="880" y1="1050.2432" y2="1050.2432"/><text fill="#000000" font-family="sans-serif" font-size="13" lengthAdjust="spacing" textLength="281" x="437.5" y="1045.3867">EthTrcv_30_88Q1010_Internal_ReadCl45TrcvReg</text><polygon fill="#A80036" points="431.5,1077.9976,421.5,1081.9976,431.5,1085.9976,427.5,1081.9976" style="stroke:#A80036;stroke-width:1.0;"/><line style="stroke:#A80036;stroke-width:1.0;" x1="425.5" x2="880" y1="1081.9976" y2="1081.9976"/><text fill="#000000" font-family="sans-serif" font-size="13" lengthAdjust="spacing" textLength="282" x="437.5" y="1077.1411">EthTrcv_30_88Q1010_Internal_WriteCl45TrcvReg</text><path d="M313,1103.9976 L656,1103.9976 L656,1112.9976 L646,1122.9976 L313,1122.9976 L313,1103.9976 " fill="#EEEEEE" style="stroke:#000000;stroke-width:1.0;"/><rect fill="none" height="128.0176" style="stroke:#000000;stroke-width:2.0;" width="872" x="313" y="1103.9976"/><text fill="#000000" font-family="sans-serif" font-size="13" font-weight="bold" lengthAdjust="spacing" textLength="298" x="328" y="1119.8955">EthTrcv_30_88Q1010_ReadSetBitMaskWriteCl45</text><line style="stroke:#A80036;stroke-width:1.0;" x1="881" x2="923" y1="1147.5063" y2="1147.5063"/><line style="stroke:#A80036;stroke-width:1.0;" x1="923" x2="923" y1="1147.5063" y2="1160.5063"/><line style="stroke:#A80036;stroke-width:1.0;" x1="882" x2="923" y1="1160.5063" y2="1160.5063"/><polygon fill="#A80036" points="892,1156.5063,882,1160.5063,892,1164.5063,888,1160.5063" style="stroke:#A80036;stroke-width:1.0;"/><text fill="#000000" font-family="sans-serif" font-size="13" lengthAdjust="spacing" textLength="285" x="888" y="1142.6499">EthTrcv_30_88Q1010_ReadSetBitMaskWriteCl45</text><polygon fill="#A80036" points="431.5,1188.2607,421.5,1192.2607,431.5,1196.2607,427.5,1192.2607" style="stroke:#A80036;stroke-width:1.0;"/><line style="stroke:#A80036;stroke-width:1.0;" x1="425.5" x2="880" y1="1192.2607" y2="1192.2607"/><text fill="#000000" font-family="sans-serif" font-size="13" lengthAdjust="spacing" textLength="281" x="437.5" y="1187.4043">EthTrcv_30_88Q1010_Internal_ReadCl45TrcvReg</text><polygon fill="#A80036" points="431.5,1220.0151,421.5,1224.0151,431.5,1228.0151,427.5,1224.0151" style="stroke:#A80036;stroke-width:1.0;"/><line style="stroke:#A80036;stroke-width:1.0;" x1="425.5" x2="880" y1="1224.0151" y2="1224.0151"/><text fill="#000000" font-family="sans-serif" font-size="13" lengthAdjust="spacing" textLength="282" x="437.5" y="1219.1587">EthTrcv_30_88Q1010_Internal_WriteCl45TrcvReg</text><path d="M20,1253.0151 L388,1253.0151 L388,1262.0151 L378,1272.0151 L20,1272.0151 L20,1253.0151 " fill="#EEEEEE" style="stroke:#000000;stroke-width:1.0;"/><rect fill="none" height="96.2632" style="stroke:#000000;stroke-width:2.0;" width="1193" x="20" y="1253.0151"/><text fill="#000000" font-family="sans-serif" font-size="13" font-weight="bold" lengthAdjust="spacing" textLength="323" x="35" y="1268.9131">EthTrcv_30_88Q1010_LL_SetTransceiverModeDown</text><polygon fill="#A80036" points="869,1292.5239,879,1296.5239,869,1300.5239,873,1296.5239" style="stroke:#A80036;stroke-width:1.0;"/><line style="stroke:#A80036;stroke-width:1.0;" x1="114.5" x2="875" y1="1296.5239" y2="1296.5239"/><text fill="#000000" font-family="sans-serif" font-size="13" lengthAdjust="spacing" textLength="300" x="121.5" y="1291.6675">EthTrcv_30_88Q1010_LL_SetTransceiverModeDown</text><line style="stroke:#A80036;stroke-width:1.0;" x1="881" x2="923" y1="1328.2783" y2="1328.2783"/><line style="stroke:#A80036;stroke-width:1.0;" x1="923" x2="923" y1="1328.2783" y2="1341.2783"/><line style="stroke:#A80036;stroke-width:1.0;" x1="882" x2="923" y1="1341.2783" y2="1341.2783"/><polygon fill="#A80036" points="892,1337.2783,882,1341.2783,892,1345.2783,888,1341.2783" style="stroke:#A80036;stroke-width:1.0;"/><text fill="#000000" font-family="sans-serif" font-size="13" lengthAdjust="spacing" textLength="313" x="888" y="1323.4219">EthTrcv_30_88Q1010_ReadSetBitMaskWriteCl45(2次)</text><!--MD5=[c4223be26560bc0333929296afa55d4a]
@startuml
group EthTrcv_30_88Q1010_LL_IsTransceiverAccessOk
    EthTrcv_30_88Q1010.c -> EthTrcv_30_88Q1010.c: EthTrcv_30_88Q1010_LL_IsTransceiverAccessOk
    group EthTrcv_30_88Q1010_Internal_ReadCl45TrcvReg
        EthTrcv_30_88Q1010.c -> EthTrcv_30_88Q1010_Hw.c:EthTrcv_30_88Q1010_Internal_ReadCl45TrcvReg
        group EthTrcv_30_88Q1010_SetCl45AddrReg
            EthTrcv_30_88Q1010_Hw.c -> EthTrcv_30_88Q1010_Hw.c:EthTrcv_30_88Q1010_SetCl45AddrReg
            EthTrcv_30_88Q1010_Hw.c -> EthTrcv_30_88Q1010_Hw.c:EthTrcv_30_88Q1010_Internal_WriteTrcvReg(3次)
            EthTrcv_30_88Q1010_Hw.c -> Eth_30_Enet.c:Eth_30_Enet_Internal_WriteMii
        end

        group EthTrcv_30_88Q1010_Internal_ReadTrcvReg
            EthTrcv_30_88Q1010_Hw.c -> EthTrcv_30_88Q1010_Hw.c:EthTrcv_30_88Q1010_Internal_ReadTrcvReg(1次)
            EthTrcv_30_88Q1010_Hw.c -> Eth_30_Enet.c:Eth_30_Enet_Internal_ReadMii
        end
    end
end

EthTrcv_30_88Q1010.c -> EthTrcv_30_88Q1010.c: EthTrcv_30_88Q1010_PerformSoftwareReset

group ETHTRCV_30_88Q1010_BEGIN_CRITICAL_SECTION_SEQUENCE
    EthTrcv_30_88Q1010.c -> EthTrcv_30_88Q1010_LL.h: EthTrcv_30_88Q1010_LL_SetBasicConfigurationRegister
    group EthTrcv_30_88Q1010_Internal_WriteCl45TrcvReg
        EthTrcv_30_88Q1010.c -> EthTrcv_30_88Q1010_Hw.c:EthTrcv_30_88Q1010_Internal_WriteCl45TrcvReg
        group EthTrcv_30_88Q1010_SetCl45AddrReg
            EthTrcv_30_88Q1010_Hw.c -> EthTrcv_30_88Q1010_Hw.c:EthTrcv_30_88Q1010_SetCl45AddrReg
            EthTrcv_30_88Q1010_Hw.c -> EthTrcv_30_88Q1010_Hw.c:EthTrcv_30_88Q1010_Internal_WriteTrcvReg(3次)
            EthTrcv_30_88Q1010_Hw.c -> Eth_30_Enet.c:Eth_30_Enet_Internal_WriteMii
        end

        group EthTrcv_30_88Q1010_Internal_WriteTrcvReg
            EthTrcv_30_88Q1010_Hw.c -> EthTrcv_30_88Q1010_Hw.c:EthTrcv_30_88Q1010_Internal_WriteTrcvReg(1次)
            EthTrcv_30_88Q1010_Hw.c -> Eth_30_Enet.c:Eth_30_Enet_Internal_WriteMii
        end
    end

    group EthTrcv_30_88Q1010_LL_ApplyAdditionalConfigSteps
        EthTrcv_30_88Q1010.c -> EthTrcv_30_88Q1010_LL.h: EthTrcv_30_88Q1010_LL_ApplyAdditionalConfigSteps

        group EthTrcv_30_88Q1010_ReadClearBitMaskWriteCl45
        EthTrcv_30_88Q1010_LL.h -> EthTrcv_30_88Q1010_LL.h: EthTrcv_30_88Q1010_ReadClearBitMaskWriteCl45
            EthTrcv_30_88Q1010_LL.h -> EthTrcv_30_88Q1010_Hw.c: EthTrcv_30_88Q1010_Internal_ReadCl45TrcvReg
            EthTrcv_30_88Q1010_LL.h -> EthTrcv_30_88Q1010_Hw.c: EthTrcv_30_88Q1010_Internal_WriteCl45TrcvReg
        end

        group EthTrcv_30_88Q1010_ReadSetBitMaskWriteCl45
        EthTrcv_30_88Q1010_LL.h -> EthTrcv_30_88Q1010_LL.h: EthTrcv_30_88Q1010_ReadSetBitMaskWriteCl45
        EthTrcv_30_88Q1010_LL.h -> EthTrcv_30_88Q1010_Hw.c: EthTrcv_30_88Q1010_Internal_ReadCl45TrcvReg
        EthTrcv_30_88Q1010_LL.h -> EthTrcv_30_88Q1010_Hw.c: EthTrcv_30_88Q1010_Internal_WriteCl45TrcvReg
        end
    end

    group EthTrcv_30_88Q1010_LL_SetTransceiverModeDown
    EthTrcv_30_88Q1010.c -> EthTrcv_30_88Q1010_LL.h: EthTrcv_30_88Q1010_LL_SetTransceiverModeDown
    EthTrcv_30_88Q1010_LL.h -> EthTrcv_30_88Q1010_LL.h: EthTrcv_30_88Q1010_ReadSetBitMaskWriteCl45(2次)
    end
end
@enduml

PlantUML version 1.2021.7(Sun May 23 20:40:07 CST 2021)
(GPL source distribution)
Java Runtime: Java(TM) SE Runtime Environment
JVM: Java HotSpot(TM) Client VM
Default Encoding: GBK
Language: zh
Country: CN
--></g></svg>