<?xml version="1.0" encoding="UTF-8" standalone="no"?><svg xmlns="http://www.w3.org/2000/svg" xmlns:xlink="http://www.w3.org/1999/xlink" contentScriptType="application/ecmascript" contentStyleType="text/css" height="402px" preserveAspectRatio="none" style="width:1406px;height:402px;" version="1.1" viewBox="0 0 1406 402" width="1406px" zoomAndPan="magnify"><defs><filter height="300%" id="fcquoibn6orxf" width="300%" x="-1" y="-1"><feGaussianBlur result="blurOut" stdDeviation="2.0"/><feColorMatrix in="blurOut" result="blurOut2" type="matrix" values="0 0 0 0 0 0 0 0 0 0 0 0 0 0 0 0 0 0 .4 0"/><feOffset dx="4.0" dy="4.0" in="blurOut2" result="blurOut3"/><feBlend in="SourceGraphic" in2="blurOut3" mode="normal"/></filter></defs><g><line style="stroke:#A80036;stroke-width:1.0;stroke-dasharray:5.0,5.0;" x1="30" x2="30" y1="43.1201" y2="356.1553"/><line style="stroke:#A80036;stroke-width:1.0;stroke-dasharray:5.0,5.0;" x1="246.5" x2="246.5" y1="43.1201" y2="356.1553"/><line style="stroke:#A80036;stroke-width:1.0;stroke-dasharray:5.0,5.0;" x1="474.5" x2="474.5" y1="43.1201" y2="356.1553"/><line style="stroke:#A80036;stroke-width:1.0;stroke-dasharray:5.0,5.0;" x1="740.5" x2="740.5" y1="43.1201" y2="356.1553"/><line style="stroke:#A80036;stroke-width:1.0;stroke-dasharray:5.0,5.0;" x1="928.5" x2="928.5" y1="43.1201" y2="356.1553"/><line style="stroke:#A80036;stroke-width:1.0;stroke-dasharray:5.0,5.0;" x1="1106" x2="1106" y1="43.1201" y2="356.1553"/><rect fill="#FEFECE" filter="url(#fcquoibn6orxf)" height="33.1201" style="stroke:#A80036;stroke-width:1.5;" width="47" x="5" y="5"/><text fill="#000000" font-family="sans-serif" font-size="14" lengthAdjust="spacing" textLength="33" x="12" y="28.0439">Soad</text><rect fill="#FEFECE" filter="url(#fcquoibn6orxf)" height="33.1201" style="stroke:#A80036;stroke-width:1.5;" width="47" x="5" y="355.1553"/><text fill="#000000" font-family="sans-serif" font-size="14" lengthAdjust="spacing" textLength="33" x="12" y="378.1992">Soad</text><rect fill="#FEFECE" filter="url(#fcquoibn6orxf)" height="33.1201" style="stroke:#A80036;stroke-width:1.5;" width="60" x="214.5" y="5"/><text fill="#000000" font-family="sans-serif" font-size="14" lengthAdjust="spacing" textLength="46" x="221.5" y="28.0439">TcpIp.c</text><rect fill="#FEFECE" filter="url(#fcquoibn6orxf)" height="33.1201" style="stroke:#A80036;stroke-width:1.5;" width="60" x="214.5" y="355.1553"/><text fill="#000000" font-family="sans-serif" font-size="14" lengthAdjust="spacing" textLength="46" x="221.5" y="378.1992">TcpIp.c</text><rect fill="#FEFECE" filter="url(#fcquoibn6orxf)" height="33.1201" style="stroke:#A80036;stroke-width:1.5;" width="96" x="424.5" y="5"/><text fill="#000000" font-family="sans-serif" font-size="14" lengthAdjust="spacing" textLength="82" x="431.5" y="28.0439">TcpIp_IpV4.c</text><rect fill="#FEFECE" filter="url(#fcquoibn6orxf)" height="33.1201" style="stroke:#A80036;stroke-width:1.5;" width="96" x="424.5" y="355.1553"/><text fill="#000000" font-family="sans-serif" font-size="14" lengthAdjust="spacing" textLength="82" x="431.5" y="378.1992">TcpIp_IpV4.c</text><rect fill="#FEFECE" filter="url(#fcquoibn6orxf)" height="33.1201" style="stroke:#A80036;stroke-width:1.5;" width="104" x="686.5" y="5"/><text fill="#000000" font-family="sans-serif" font-size="14" lengthAdjust="spacing" textLength="90" x="693.5" y="28.0439">EthIf_EthCtrl.c</text><rect fill="#FEFECE" filter="url(#fcquoibn6orxf)" height="33.1201" style="stroke:#A80036;stroke-width:1.5;" width="104" x="686.5" y="355.1553"/><text fill="#000000" font-family="sans-serif" font-size="14" lengthAdjust="spacing" textLength="90" x="693.5" y="378.1992">EthIf_EthCtrl.c</text><rect fill="#FEFECE" filter="url(#fcquoibn6orxf)" height="33.1201" style="stroke:#A80036;stroke-width:1.5;" width="88" x="882.5" y="5"/><text fill="#000000" font-family="sans-serif" font-size="14" lengthAdjust="spacing" textLength="74" x="889.5" y="28.0439">EthIf_Lcfg.c</text><rect fill="#FEFECE" filter="url(#fcquoibn6orxf)" height="33.1201" style="stroke:#A80036;stroke-width:1.5;" width="88" x="882.5" y="355.1553"/><text fill="#000000" font-family="sans-serif" font-size="14" lengthAdjust="spacing" textLength="74" x="889.5" y="378.1992">EthIf_Lcfg.c</text><rect fill="#FEFECE" filter="url(#fcquoibn6orxf)" height="33.1201" style="stroke:#A80036;stroke-width:1.5;" width="107" x="1051" y="5"/><text fill="#000000" font-family="sans-serif" font-size="14" lengthAdjust="spacing" textLength="93" x="1058" y="28.0439">Eth_30_Enet.c</text><rect fill="#FEFECE" filter="url(#fcquoibn6orxf)" height="33.1201" style="stroke:#A80036;stroke-width:1.5;" width="107" x="1051" y="355.1553"/><text fill="#000000" font-family="sans-serif" font-size="14" lengthAdjust="spacing" textLength="93" x="1058" y="378.1992">Eth_30_Enet.c</text><polygon fill="#A80036" points="234.5,72.8745,244.5,76.8745,234.5,80.8745,238.5,76.8745" style="stroke:#A80036;stroke-width:1.0;"/><line style="stroke:#A80036;stroke-width:1.0;" x1="30.5" x2="240.5" y1="76.8745" y2="76.8745"/><text fill="#000000" font-family="sans-serif" font-size="13" lengthAdjust="spacing" textLength="192" x="37.5" y="72.0181">TcpIp_RequestIpAddrAssignment</text><polygon fill="#A80036" points="462.5,104.6289,472.5,108.6289,462.5,112.6289,466.5,108.6289" style="stroke:#A80036;stroke-width:1.0;"/><line style="stroke:#A80036;stroke-width:1.0;" x1="246.5" x2="468.5" y1="108.6289" y2="108.6289"/><text fill="#000000" font-family="sans-serif" font-size="13" lengthAdjust="spacing" textLength="204" x="253.5" y="103.7725">IpV4_Ip_RequestIpAddrAssignment</text><line style="stroke:#A80036;stroke-width:1.0;" x1="474.5" x2="516.5" y1="140.3833" y2="140.3833"/><line style="stroke:#A80036;stroke-width:1.0;" x1="516.5" x2="516.5" y1="140.3833" y2="153.3833"/><line style="stroke:#A80036;stroke-width:1.0;" x1="475.5" x2="516.5" y1="153.3833" y2="153.3833"/><polygon fill="#A80036" points="485.5,149.3833,475.5,153.3833,485.5,157.3833,481.5,153.3833" style="stroke:#A80036;stroke-width:1.0;"/><text fill="#000000" font-family="sans-serif" font-size="13" lengthAdjust="spacing" textLength="252" x="481.5" y="135.5269">IpV4_Ip_VChangeMulticastAddrAssignment</text><line style="stroke:#A80036;stroke-width:1.0;" x1="474.5" x2="516.5" y1="185.1377" y2="185.1377"/><line style="stroke:#A80036;stroke-width:1.0;" x1="516.5" x2="516.5" y1="185.1377" y2="198.1377"/><line style="stroke:#A80036;stroke-width:1.0;" x1="475.5" x2="516.5" y1="198.1377" y2="198.1377"/><polygon fill="#A80036" points="485.5,194.1377,475.5,198.1377,485.5,202.1377,481.5,198.1377" style="stroke:#A80036;stroke-width:1.0;"/><text fill="#000000" font-family="sans-serif" font-size="13" lengthAdjust="spacing" textLength="170" x="481.5" y="180.2813">IpV4_Ip_VJoinMulticastGroup</text><polygon fill="#A80036" points="728.5,225.8921,738.5,229.8921,728.5,233.8921,732.5,229.8921" style="stroke:#A80036;stroke-width:1.0;"/><line style="stroke:#A80036;stroke-width:1.0;" x1="474.5" x2="734.5" y1="229.8921" y2="229.8921"/><text fill="#000000" font-family="sans-serif" font-size="13" lengthAdjust="spacing" textLength="160" x="481.5" y="225.0356">EthIf_UpdatePhysAddrFilter</text><polygon fill="#A80036" points="916.5,257.6465,926.5,261.6465,916.5,265.6465,920.5,261.6465" style="stroke:#A80036;stroke-width:1.0;"/><line style="stroke:#A80036;stroke-width:1.0;" x1="740.5" x2="922.5" y1="261.6465" y2="261.6465"/><text fill="#000000" font-family="sans-serif" font-size="13" lengthAdjust="spacing" textLength="164" x="747.5" y="256.79">EthIf_GetTxConfOfEthDrvApi</text><polygon fill="#A80036" points="1094.5,289.4009,1104.5,293.4009,1094.5,297.4009,1098.5,293.4009" style="stroke:#A80036;stroke-width:1.0;"/><line style="stroke:#A80036;stroke-width:1.0;" x1="928.5" x2="1100.5" y1="293.4009" y2="293.4009"/><text fill="#000000" font-family="sans-serif" font-size="13" lengthAdjust="spacing" textLength="154" x="935.5" y="288.5444">EthIf_EthDrvApi (const var)</text><line style="stroke:#A80036;stroke-width:1.0;" x1="1106.5" x2="1148.5" y1="325.1553" y2="325.1553"/><line style="stroke:#A80036;stroke-width:1.0;" x1="1148.5" x2="1148.5" y1="325.1553" y2="338.1553"/><line style="stroke:#A80036;stroke-width:1.0;" x1="1107.5" x2="1148.5" y1="338.1553" y2="338.1553"/><polygon fill="#A80036" points="1117.5,334.1553,1107.5,338.1553,1117.5,342.1553,1113.5,338.1553" style="stroke:#A80036;stroke-width:1.0;"/><text fill="#000000" font-family="sans-serif" font-size="13" lengthAdjust="spacing" textLength="286" x="1113.5" y="320.2988">Eth_30_Enet_UpdatePhysAddrFilter_NormalMAC</text><!--MD5=[bb84dcab8932cad45a1f81643cad3c50]
@startuml
Soad -> TcpIp.c: TcpIp_RequestIpAddrAssignment
TcpIp.c -> TcpIp_IpV4.c: IpV4_Ip_RequestIpAddrAssignment
TcpIp_IpV4.c -> TcpIp_IpV4.c: IpV4_Ip_VChangeMulticastAddrAssignment
TcpIp_IpV4.c -> TcpIp_IpV4.c: IpV4_Ip_VJoinMulticastGroup
TcpIp_IpV4.c -> EthIf_EthCtrl.c: EthIf_UpdatePhysAddrFilter
EthIf_EthCtrl.c -> EthIf_Lcfg.c : EthIf_GetTxConfOfEthDrvApi 
EthIf_Lcfg.c -> Eth_30_Enet.c: EthIf_EthDrvApi (const var)
Eth_30_Enet.c -> Eth_30_Enet.c : Eth_30_Enet_UpdatePhysAddrFilter_NormalMAC
@enduml

PlantUML version 1.2021.00(Sun Jan 10 18:25:05 CST 2021)
(GPL source distribution)
Java Runtime: Java(TM) SE Runtime Environment
JVM: Java HotSpot(TM) Client VM
Default Encoding: GBK
Language: zh
Country: CN
--></g></svg>